<svg width="20" height="21" viewBox="0 0 20 21" fill="none" xmlns="http://www.w3.org/2000/svg">
<g clip-path="url(#clip0_22_60820)">
<path d="M10.0003 4.66685C4.86618 4.66685 0.291255 10.0035 0.0987582 10.2309C-0.0329194 10.3859 -0.0329194 10.6134 0.0987582 10.7693C0.213756 10.9051 1.89541 12.8575 4.32037 14.4125L6.93201 11.8009C6.76201 11.4009 6.66701 10.9617 6.66701 10.5001C6.66701 8.66179 8.16199 7.16682 10.0003 7.16682C10.462 7.16682 10.9011 7.26181 11.3011 7.43181L13.4485 5.28435C12.4019 4.91017 11.2528 4.66685 10.0003 4.66685Z" fill="#989898"/>
<path d="M19.9269 10.2626C19.8202 10.1084 18.0511 7.61844 15.077 6.01346L17.3794 3.711C17.5419 3.5485 17.5419 3.28432 17.3794 3.12183C17.2169 2.95933 16.9528 2.95933 16.7903 3.12183L2.62383 17.2883C2.46133 17.4508 2.46133 17.715 2.62383 17.8775C2.70465 17.9592 2.81132 18 2.918 18C3.02468 18 3.13132 17.9592 3.213 17.8783L5.82546 15.2659C7.11294 15.8942 8.53292 16.3333 10.0012 16.3333C15.1353 16.3333 19.7103 10.9967 19.9028 10.7692C20.0236 10.6251 20.0344 10.4176 19.9269 10.2626ZM10.0012 13.8334C9.23205 13.8334 8.53292 13.5609 7.96793 13.1226L12.6237 8.46682C13.062 9.03181 13.3345 9.73098 13.3345 10.5001C13.3345 12.3384 11.8395 13.8334 10.0012 13.8334Z" fill="#989898"/>
</g>
<defs>
<clipPath id="clip0_22_60820">
<rect width="20" height="20" fill="white" transform="translate(0 0.5)"/>
</clipPath>
</defs>
</svg>
